<mxfile host="www.draw.io" modified="2019-10-23T10:23:53.738Z" agent="Mozilla/5.0 (Windows NT 10.0; Win64; x64; rv:69.0) Gecko/20100101 Firefox/69.0" etag="FfjFcLDgi4FzU7-I_CKN" version="12.1.3" type="github" pages="1">
  <diagram id="AUOvVh1_00nn_1LIGHaV" name="Page-1">
    <mxGraphModel dx="1097" dy="566" grid="1" gridSize="10" guides="1" tooltips="1" connect="1" arrows="1" fold="1" page="1" pageScale="1" pageWidth="1100" pageHeight="850" math="0" shadow="0">
      <root>
        <mxCell id="0"/>
        <mxCell id="1" parent="0"/>
        <mxCell id="rCFci73cA3xN7o4rIOeo-2" value="MainMenu" style="swimlane;fontStyle=1;align=center;verticalAlign=top;childLayout=stackLayout;horizontal=1;startSize=26;horizontalStack=0;resizeParent=1;resizeParentMax=0;resizeLast=0;collapsible=1;marginBottom=0;" vertex="1" parent="1">
          <mxGeometry x="30" y="278" width="220" height="100" as="geometry"/>
        </mxCell>
        <mxCell id="rCFci73cA3xN7o4rIOeo-3" value="- _NoOfPlayers:int" style="text;strokeColor=none;fillColor=none;align=left;verticalAlign=top;spacingLeft=4;spacingRight=4;overflow=hidden;rotatable=0;points=[[0,0.5],[1,0.5]];portConstraint=eastwest;" vertex="1" parent="rCFci73cA3xN7o4rIOeo-2">
          <mxGeometry y="26" width="220" height="26" as="geometry"/>
        </mxCell>
        <mxCell id="rCFci73cA3xN7o4rIOeo-4" value="" style="line;strokeWidth=1;fillColor=none;align=left;verticalAlign=middle;spacingTop=-1;spacingLeft=3;spacingRight=3;rotatable=0;labelPosition=right;points=[];portConstraint=eastwest;" vertex="1" parent="rCFci73cA3xN7o4rIOeo-2">
          <mxGeometry y="52" width="220" height="8" as="geometry"/>
        </mxCell>
        <mxCell id="rCFci73cA3xN7o4rIOeo-5" value="+ MainMenu(NoOfPlayer:int)&#xa;+NoOfPlayers:int &lt;readonly property&gt;&#xa;" style="text;strokeColor=none;fillColor=none;align=left;verticalAlign=top;spacingLeft=4;spacingRight=4;overflow=hidden;rotatable=0;points=[[0,0.5],[1,0.5]];portConstraint=eastwest;" vertex="1" parent="rCFci73cA3xN7o4rIOeo-2">
          <mxGeometry y="60" width="220" height="40" as="geometry"/>
        </mxCell>
        <mxCell id="rCFci73cA3xN7o4rIOeo-6" value="NormalMode" style="swimlane;fontStyle=1;align=center;verticalAlign=top;childLayout=stackLayout;horizontal=1;startSize=26;horizontalStack=0;resizeParent=1;resizeParentMax=0;resizeLast=0;collapsible=1;marginBottom=0;" vertex="1" parent="1">
          <mxGeometry x="275" y="90" width="120" height="86" as="geometry"/>
        </mxCell>
        <mxCell id="rCFci73cA3xN7o4rIOeo-7" value="+ field: type" style="text;strokeColor=none;fillColor=none;align=left;verticalAlign=top;spacingLeft=4;spacingRight=4;overflow=hidden;rotatable=0;points=[[0,0.5],[1,0.5]];portConstraint=eastwest;" vertex="1" parent="rCFci73cA3xN7o4rIOeo-6">
          <mxGeometry y="26" width="120" height="26" as="geometry"/>
        </mxCell>
        <mxCell id="rCFci73cA3xN7o4rIOeo-8" value="" style="line;strokeWidth=1;fillColor=none;align=left;verticalAlign=middle;spacingTop=-1;spacingLeft=3;spacingRight=3;rotatable=0;labelPosition=right;points=[];portConstraint=eastwest;" vertex="1" parent="rCFci73cA3xN7o4rIOeo-6">
          <mxGeometry y="52" width="120" height="8" as="geometry"/>
        </mxCell>
        <mxCell id="rCFci73cA3xN7o4rIOeo-9" value="+ NormalMode()" style="text;strokeColor=none;fillColor=none;align=left;verticalAlign=top;spacingLeft=4;spacingRight=4;overflow=hidden;rotatable=0;points=[[0,0.5],[1,0.5]];portConstraint=eastwest;" vertex="1" parent="rCFci73cA3xN7o4rIOeo-6">
          <mxGeometry y="60" width="120" height="26" as="geometry"/>
        </mxCell>
        <mxCell id="rCFci73cA3xN7o4rIOeo-10" value="JokerMode" style="swimlane;fontStyle=1;align=center;verticalAlign=top;childLayout=stackLayout;horizontal=1;startSize=26;horizontalStack=0;resizeParent=1;resizeParentMax=0;resizeLast=0;collapsible=1;marginBottom=0;" vertex="1" parent="1">
          <mxGeometry x="500" y="90" width="110" height="86" as="geometry"/>
        </mxCell>
        <mxCell id="rCFci73cA3xN7o4rIOeo-11" value="Â -_jokerCard:Card" style="text;strokeColor=none;fillColor=none;align=left;verticalAlign=top;spacingLeft=4;spacingRight=4;overflow=hidden;rotatable=0;points=[[0,0.5],[1,0.5]];portConstraint=eastwest;" vertex="1" parent="rCFci73cA3xN7o4rIOeo-10">
          <mxGeometry y="26" width="110" height="26" as="geometry"/>
        </mxCell>
        <mxCell id="rCFci73cA3xN7o4rIOeo-12" value="" style="line;strokeWidth=1;fillColor=none;align=left;verticalAlign=middle;spacingTop=-1;spacingLeft=3;spacingRight=3;rotatable=0;labelPosition=right;points=[];portConstraint=eastwest;" vertex="1" parent="rCFci73cA3xN7o4rIOeo-10">
          <mxGeometry y="52" width="110" height="8" as="geometry"/>
        </mxCell>
        <mxCell id="rCFci73cA3xN7o4rIOeo-13" value="+JokerMode()" style="text;strokeColor=none;fillColor=none;align=left;verticalAlign=top;spacingLeft=4;spacingRight=4;overflow=hidden;rotatable=0;points=[[0,0.5],[1,0.5]];portConstraint=eastwest;" vertex="1" parent="rCFci73cA3xN7o4rIOeo-10">
          <mxGeometry y="60" width="110" height="26" as="geometry"/>
        </mxCell>
        <mxCell id="rCFci73cA3xN7o4rIOeo-18" value="Table" style="swimlane;fontStyle=1;align=center;verticalAlign=top;childLayout=stackLayout;horizontal=1;startSize=26;horizontalStack=0;resizeParent=1;resizeParentMax=0;resizeLast=0;collapsible=1;marginBottom=0;" vertex="1" parent="1">
          <mxGeometry x="335" y="500" width="160" height="170" as="geometry"/>
        </mxCell>
        <mxCell id="rCFci73cA3xN7o4rIOeo-19" value="- _highestCard:Card&#xa;- _playerList: List&lt;Players&gt;&#xa;" style="text;strokeColor=none;fillColor=none;align=left;verticalAlign=top;spacingLeft=4;spacingRight=4;overflow=hidden;rotatable=0;points=[[0,0.5],[1,0.5]];portConstraint=eastwest;" vertex="1" parent="rCFci73cA3xN7o4rIOeo-18">
          <mxGeometry y="26" width="160" height="44" as="geometry"/>
        </mxCell>
        <mxCell id="rCFci73cA3xN7o4rIOeo-20" value="" style="line;strokeWidth=1;fillColor=none;align=left;verticalAlign=middle;spacingTop=-1;spacingLeft=3;spacingRight=3;rotatable=0;labelPosition=right;points=[];portConstraint=eastwest;" vertex="1" parent="rCFci73cA3xN7o4rIOeo-18">
          <mxGeometry y="70" width="160" height="8" as="geometry"/>
        </mxCell>
        <mxCell id="rCFci73cA3xN7o4rIOeo-21" value="+ Table(players:Player[])&#xa;+ ValidateAction()&#xa;+ ResetTable()&#xa;+ CheckPlayerHand(player:Player)&#xa;+ HighestCard:Card &lt;&lt;property&gt;&gt;" style="text;strokeColor=none;fillColor=none;align=left;verticalAlign=top;spacingLeft=4;spacingRight=4;overflow=hidden;rotatable=0;points=[[0,0.5],[1,0.5]];portConstraint=eastwest;" vertex="1" parent="rCFci73cA3xN7o4rIOeo-18">
          <mxGeometry y="78" width="160" height="92" as="geometry"/>
        </mxCell>
        <mxCell id="rCFci73cA3xN7o4rIOeo-51" value="&lt;p style=&quot;margin: 0px ; margin-top: 4px ; text-align: center&quot;&gt;&lt;i&gt;&amp;lt;&amp;lt;abstract&amp;gt;&amp;gt;&lt;/i&gt;&lt;br&gt;&lt;b&gt;Player&lt;/b&gt;&lt;/p&gt;&lt;hr size=&quot;1&quot;&gt;&lt;p style=&quot;margin: 0px ; margin-left: 4px&quot;&gt;- _playerHand: Hand&lt;/p&gt;&lt;p style=&quot;margin: 0px ; margin-left: 4px&quot;&gt;- _playerStatus: bool&lt;br&gt;&lt;/p&gt;&lt;hr size=&quot;1&quot;&gt;&lt;p style=&quot;margin: 0px ; margin-left: 4px&quot;&gt;+ Player()&lt;br&gt;+ PlaceOneCard()&lt;/p&gt;&lt;p style=&quot;margin: 0px ; margin-left: 4px&quot;&gt;+ PlaceDoubleCard()&lt;/p&gt;&lt;p style=&quot;margin: 0px ; margin-left: 4px&quot;&gt;+ PlaceTriplerCard()&lt;/p&gt;&lt;p style=&quot;margin: 0px ; margin-left: 4px&quot;&gt;+ SitOut()&lt;/p&gt;&lt;p style=&quot;margin: 0px ; margin-left: 4px&quot;&gt;+ PlayerHand:Hand &amp;lt;property&amp;gt;&lt;br&gt;&lt;/p&gt;" style="verticalAlign=top;align=left;overflow=fill;fontSize=12;fontFamily=Helvetica;html=1;glass=0;" vertex="1" parent="1">
          <mxGeometry x="335" y="810" width="190" height="180" as="geometry"/>
        </mxCell>
        <mxCell id="rCFci73cA3xN7o4rIOeo-52" value="&lt;p style=&quot;margin: 0px ; margin-top: 4px ; text-align: center&quot;&gt;&lt;i&gt;&amp;lt;&amp;lt;abstract&amp;gt;&amp;gt;&lt;/i&gt;&lt;br&gt;&lt;b&gt;GameMode&lt;/b&gt;&lt;/p&gt;&lt;hr size=&quot;1&quot;&gt;&lt;p style=&quot;margin: 0px ; margin-left: 4px&quot;&gt;-_table:Table&lt;br&gt;&lt;/p&gt;&lt;hr size=&quot;1&quot;&gt;&lt;p style=&quot;margin: 0px ; margin-left: 4px&quot;&gt;+ GameMode()&lt;/p&gt;&lt;p style=&quot;margin: 0px ; margin-left: 4px&quot;&gt;+ GameLogic()&lt;br&gt;&lt;/p&gt;" style="verticalAlign=top;align=left;overflow=fill;fontSize=12;fontFamily=Helvetica;html=1;glass=0;" vertex="1" parent="1">
          <mxGeometry x="345" y="277" width="145" height="114" as="geometry"/>
        </mxCell>
        <mxCell id="rCFci73cA3xN7o4rIOeo-53" value="Deck" style="swimlane;fontStyle=1;align=center;verticalAlign=top;childLayout=stackLayout;horizontal=1;startSize=26;horizontalStack=0;resizeParent=1;resizeParentMax=0;resizeLast=0;collapsible=1;marginBottom=0;glass=0;fontSize=12;" vertex="1" parent="1">
          <mxGeometry x="650" y="570" width="160" height="130" as="geometry"/>
        </mxCell>
        <mxCell id="rCFci73cA3xN7o4rIOeo-54" value="- _cardSet: Lisr&lt;Card&gt;" style="text;strokeColor=none;fillColor=none;align=left;verticalAlign=top;spacingLeft=4;spacingRight=4;overflow=hidden;rotatable=0;points=[[0,0.5],[1,0.5]];portConstraint=eastwest;" vertex="1" parent="rCFci73cA3xN7o4rIOeo-53">
          <mxGeometry y="26" width="160" height="26" as="geometry"/>
        </mxCell>
        <mxCell id="rCFci73cA3xN7o4rIOeo-55" value="" style="line;strokeWidth=1;fillColor=none;align=left;verticalAlign=middle;spacingTop=-1;spacingLeft=3;spacingRight=3;rotatable=0;labelPosition=right;points=[];portConstraint=eastwest;" vertex="1" parent="rCFci73cA3xN7o4rIOeo-53">
          <mxGeometry y="52" width="160" height="8" as="geometry"/>
        </mxCell>
        <mxCell id="rCFci73cA3xN7o4rIOeo-56" value="+ Deck()&#xa;+ Shuffle()&#xa;+ Draw(player:Player)&#xa;" style="text;strokeColor=none;fillColor=none;align=left;verticalAlign=top;spacingLeft=4;spacingRight=4;overflow=hidden;rotatable=0;points=[[0,0.5],[1,0.5]];portConstraint=eastwest;" vertex="1" parent="rCFci73cA3xN7o4rIOeo-53">
          <mxGeometry y="60" width="160" height="70" as="geometry"/>
        </mxCell>
        <mxCell id="rCFci73cA3xN7o4rIOeo-82" value="" style="edgeStyle=orthogonalEdgeStyle;rounded=0;orthogonalLoop=1;jettySize=auto;html=1;fontSize=12;entryX=0;entryY=0.5;entryDx=0;entryDy=0;" edge="1" parent="1" source="rCFci73cA3xN7o4rIOeo-57" target="rCFci73cA3xN7o4rIOeo-65">
          <mxGeometry relative="1" as="geometry">
            <mxPoint x="920" y="494" as="targetPoint"/>
          </mxGeometry>
        </mxCell>
        <mxCell id="rCFci73cA3xN7o4rIOeo-57" value="Card" style="swimlane;fontStyle=1;align=center;verticalAlign=top;childLayout=stackLayout;horizontal=1;startSize=26;horizontalStack=0;resizeParent=1;resizeParentMax=0;resizeLast=0;collapsible=1;marginBottom=0;glass=0;fontSize=12;" vertex="1" parent="1">
          <mxGeometry x="650" y="300" width="160" height="128" as="geometry"/>
        </mxCell>
        <mxCell id="rCFci73cA3xN7o4rIOeo-58" value="-_suits:Suits&#xa;- _value:int&#xa;" style="text;strokeColor=none;fillColor=none;align=left;verticalAlign=top;spacingLeft=4;spacingRight=4;overflow=hidden;rotatable=0;points=[[0,0.5],[1,0.5]];portConstraint=eastwest;" vertex="1" parent="rCFci73cA3xN7o4rIOeo-57">
          <mxGeometry y="26" width="160" height="34" as="geometry"/>
        </mxCell>
        <mxCell id="rCFci73cA3xN7o4rIOeo-59" value="" style="line;strokeWidth=1;fillColor=none;align=left;verticalAlign=middle;spacingTop=-1;spacingLeft=3;spacingRight=3;rotatable=0;labelPosition=right;points=[];portConstraint=eastwest;" vertex="1" parent="rCFci73cA3xN7o4rIOeo-57">
          <mxGeometry y="60" width="160" height="8" as="geometry"/>
        </mxCell>
        <mxCell id="rCFci73cA3xN7o4rIOeo-60" value="+ Card(value:int, suit:Suits)" style="text;strokeColor=none;fillColor=none;align=left;verticalAlign=top;spacingLeft=4;spacingRight=4;overflow=hidden;rotatable=0;points=[[0,0.5],[1,0.5]];portConstraint=eastwest;" vertex="1" parent="rCFci73cA3xN7o4rIOeo-57">
          <mxGeometry y="68" width="160" height="60" as="geometry"/>
        </mxCell>
        <mxCell id="rCFci73cA3xN7o4rIOeo-65" value="&lt;p style=&quot;margin: 0px ; margin-top: 4px ; text-align: center&quot;&gt;&lt;i&gt;&amp;lt;&amp;lt;enumeration&amp;gt;&amp;gt;&lt;/i&gt;&lt;br&gt;&lt;b&gt;Suits&lt;/b&gt;&lt;/p&gt;&lt;hr size=&quot;1&quot;&gt;&lt;p style=&quot;margin: 0px ; margin-left: 4px&quot;&gt;+ Spades&lt;/p&gt;&lt;p style=&quot;margin: 0px ; margin-left: 4px&quot;&gt;+ Hearts&lt;/p&gt;&lt;p style=&quot;margin: 0px ; margin-left: 4px&quot;&gt;+ Clubs&lt;/p&gt;&lt;p style=&quot;margin: 0px ; margin-left: 4px&quot;&gt;+ Diamonds:&lt;br&gt;&lt;/p&gt;&lt;hr size=&quot;1&quot;&gt;&lt;p style=&quot;margin: 0px ; margin-left: 4px&quot;&gt;&lt;br&gt;&lt;/p&gt;" style="verticalAlign=top;align=left;overflow=fill;fontSize=12;fontFamily=Helvetica;html=1;glass=0;" vertex="1" parent="1">
          <mxGeometry x="900" y="304" width="140" height="120" as="geometry"/>
        </mxCell>
        <mxCell id="rCFci73cA3xN7o4rIOeo-66" value="Hand" style="swimlane;fontStyle=1;align=center;verticalAlign=top;childLayout=stackLayout;horizontal=1;startSize=26;horizontalStack=0;resizeParent=1;resizeParentMax=0;resizeLast=0;collapsible=1;marginBottom=0;glass=0;fontSize=12;" vertex="1" parent="1">
          <mxGeometry x="670" y="845" width="160" height="110" as="geometry"/>
        </mxCell>
        <mxCell id="rCFci73cA3xN7o4rIOeo-67" value="-_listofCards: List&lt;Card&gt;" style="text;strokeColor=none;fillColor=none;align=left;verticalAlign=top;spacingLeft=4;spacingRight=4;overflow=hidden;rotatable=0;points=[[0,0.5],[1,0.5]];portConstraint=eastwest;" vertex="1" parent="rCFci73cA3xN7o4rIOeo-66">
          <mxGeometry y="26" width="160" height="26" as="geometry"/>
        </mxCell>
        <mxCell id="rCFci73cA3xN7o4rIOeo-68" value="" style="line;strokeWidth=1;fillColor=none;align=left;verticalAlign=middle;spacingTop=-1;spacingLeft=3;spacingRight=3;rotatable=0;labelPosition=right;points=[];portConstraint=eastwest;" vertex="1" parent="rCFci73cA3xN7o4rIOeo-66">
          <mxGeometry y="52" width="160" height="8" as="geometry"/>
        </mxCell>
        <mxCell id="rCFci73cA3xN7o4rIOeo-69" value="+ Hand()&#xa;+ ListOfCards: List&lt;Card&gt;" style="text;strokeColor=none;fillColor=none;align=left;verticalAlign=top;spacingLeft=4;spacingRight=4;overflow=hidden;rotatable=0;points=[[0,0.5],[1,0.5]];portConstraint=eastwest;" vertex="1" parent="rCFci73cA3xN7o4rIOeo-66">
          <mxGeometry y="60" width="160" height="50" as="geometry"/>
        </mxCell>
        <mxCell id="rCFci73cA3xN7o4rIOeo-91" value="" style="endArrow=block;endSize=16;endFill=0;html=1;fontSize=12;entryX=0.25;entryY=0;entryDx=0;entryDy=0;" edge="1" parent="1" source="rCFci73cA3xN7o4rIOeo-9" target="rCFci73cA3xN7o4rIOeo-52">
          <mxGeometry width="160" relative="1" as="geometry">
            <mxPoint x="140" y="450" as="sourcePoint"/>
            <mxPoint x="300" y="450" as="targetPoint"/>
          </mxGeometry>
        </mxCell>
        <mxCell id="rCFci73cA3xN7o4rIOeo-92" value="" style="endArrow=block;endSize=16;endFill=0;html=1;fontSize=12;exitX=0.5;exitY=1;exitDx=0;exitDy=0;" edge="1" parent="1" source="rCFci73cA3xN7o4rIOeo-10" target="rCFci73cA3xN7o4rIOeo-52">
          <mxGeometry width="160" relative="1" as="geometry">
            <mxPoint x="481.36784140969166" y="176.0000000000001" as="sourcePoint"/>
            <mxPoint x="519" y="276.5" as="targetPoint"/>
          </mxGeometry>
        </mxCell>
        <mxCell id="rCFci73cA3xN7o4rIOeo-93" value="" style="endArrow=diamondThin;endFill=1;endSize=24;html=1;fontSize=12;exitX=1;exitY=-0.05;exitDx=0;exitDy=0;exitPerimeter=0;entryX=0;entryY=0.5;entryDx=0;entryDy=0;" edge="1" parent="1" source="rCFci73cA3xN7o4rIOeo-5" target="rCFci73cA3xN7o4rIOeo-52">
          <mxGeometry width="160" relative="1" as="geometry">
            <mxPoint x="115" y="480" as="sourcePoint"/>
            <mxPoint x="275" y="480" as="targetPoint"/>
          </mxGeometry>
        </mxCell>
        <mxCell id="rCFci73cA3xN7o4rIOeo-94" value="" style="endArrow=diamondThin;endFill=0;endSize=24;html=1;fontSize=12;entryX=0.5;entryY=1;entryDx=0;entryDy=0;" edge="1" parent="1" target="rCFci73cA3xN7o4rIOeo-52">
          <mxGeometry width="160" relative="1" as="geometry">
            <mxPoint x="410" y="500" as="sourcePoint"/>
            <mxPoint x="380" y="490" as="targetPoint"/>
          </mxGeometry>
        </mxCell>
        <mxCell id="rCFci73cA3xN7o4rIOeo-100" value="" style="endArrow=none;html=1;edgeStyle=orthogonalEdgeStyle;fontSize=12;entryX=0.544;entryY=1.022;entryDx=0;entryDy=0;entryPerimeter=0;" edge="1" parent="1" source="rCFci73cA3xN7o4rIOeo-51" target="rCFci73cA3xN7o4rIOeo-21">
          <mxGeometry relative="1" as="geometry">
            <mxPoint x="422" y="800" as="sourcePoint"/>
            <mxPoint x="355" y="750" as="targetPoint"/>
            <Array as="points">
              <mxPoint x="422" y="740"/>
              <mxPoint x="422" y="740"/>
            </Array>
          </mxGeometry>
        </mxCell>
        <mxCell id="rCFci73cA3xN7o4rIOeo-101" value="" style="resizable=0;html=1;align=left;verticalAlign=bottom;labelBackgroundColor=#ffffff;fontSize=10;" connectable="0" vertex="1" parent="rCFci73cA3xN7o4rIOeo-100">
          <mxGeometry x="-1" relative="1" as="geometry"/>
        </mxCell>
        <mxCell id="rCFci73cA3xN7o4rIOeo-102" value="" style="resizable=0;html=1;align=right;verticalAlign=bottom;labelBackgroundColor=#ffffff;fontSize=10;" connectable="0" vertex="1" parent="rCFci73cA3xN7o4rIOeo-100">
          <mxGeometry x="1" relative="1" as="geometry"/>
        </mxCell>
        <mxCell id="rCFci73cA3xN7o4rIOeo-104" value="" style="endArrow=diamondThin;endFill=1;endSize=24;html=1;fontSize=12;entryX=1;entryY=0.5;entryDx=0;entryDy=0;exitX=0.001;exitY=-0.077;exitDx=0;exitDy=0;exitPerimeter=0;" edge="1" parent="1" source="rCFci73cA3xN7o4rIOeo-69" target="rCFci73cA3xN7o4rIOeo-51">
          <mxGeometry width="160" relative="1" as="geometry">
            <mxPoint x="30" y="1010" as="sourcePoint"/>
            <mxPoint x="190" y="1010" as="targetPoint"/>
          </mxGeometry>
        </mxCell>
        <mxCell id="rCFci73cA3xN7o4rIOeo-105" value="" style="endArrow=diamondThin;endFill=0;endSize=24;html=1;fontSize=12;entryX=0.51;entryY=1.029;entryDx=0;entryDy=0;entryPerimeter=0;exitX=0.5;exitY=0;exitDx=0;exitDy=0;" edge="1" parent="1" source="rCFci73cA3xN7o4rIOeo-53" target="rCFci73cA3xN7o4rIOeo-60">
          <mxGeometry width="160" relative="1" as="geometry">
            <mxPoint x="555" y="540" as="sourcePoint"/>
            <mxPoint x="715" y="540" as="targetPoint"/>
          </mxGeometry>
        </mxCell>
        <mxCell id="rCFci73cA3xN7o4rIOeo-106" value="" style="endArrow=diamondThin;endFill=0;endSize=24;html=1;fontSize=12;entryX=1.023;entryY=0.22;entryDx=0;entryDy=0;entryPerimeter=0;exitX=0.001;exitY=-0.024;exitDx=0;exitDy=0;exitPerimeter=0;" edge="1" parent="1" source="rCFci73cA3xN7o4rIOeo-56" target="rCFci73cA3xN7o4rIOeo-21">
          <mxGeometry width="160" relative="1" as="geometry">
            <mxPoint x="30" y="1010" as="sourcePoint"/>
            <mxPoint x="190" y="1010" as="targetPoint"/>
          </mxGeometry>
        </mxCell>
      </root>
    </mxGraphModel>
  </diagram>
</mxfile>
